<svg width="90" height="83" viewBox="0 0 90 83" fill="none" xmlns="http://www.w3.org/2000/svg">
<path fill-rule="evenodd" clip-rule="evenodd" d="M69.5949 19.4659H81.1651C85.4469 19.4659 89 22.9734 89 27.2553V62.8769C89 67.1587 85.4469 70.7118 81.1651 70.7118H72.6013C72.6013 70.7118 73.8767 78.3645 65.6774 81.5532C69.4127 75.3125 60.8945 70.7118 60.8945 70.7118H28.5071C24.1796 70.7118 20.6721 67.1587 20.6721 62.8769V60.4171C21.6287 61.3281 22.9042 62.148 24.544 62.8313C20.8088 56.5907 29.3725 51.9444 29.3725 51.9444H61.7599C66.0418 51.9444 69.5949 48.4369 69.5949 44.1095V19.4659V19.4659Z" stroke="#EF7F1A" stroke-width="1.37339" stroke-miterlimit="22.9256" stroke-linecap="round" stroke-linejoin="round"/>
<path fill-rule="evenodd" clip-rule="evenodd" d="M61.76 0.698486H9.10191C4.77447 0.698486 1.26697 4.25154 1.26697 8.53342V44.1095C1.26697 48.4369 4.77447 51.9444 9.10191 51.9444H17.6201C17.6201 51.9444 16.3902 59.5971 24.544 62.8313C20.8088 56.5907 29.3725 51.9444 29.3725 51.9444H61.76C66.0419 51.9444 69.5949 48.4369 69.5949 44.1095V8.53342C69.5949 4.25154 66.0419 0.698486 61.76 0.698486V0.698486Z" stroke="#EF7F1A" stroke-width="1.37339" stroke-miterlimit="22.9256" stroke-linecap="round" stroke-linejoin="round"/>
<path d="M54.2895 33.1315H50.8275C50.1482 33.1315 49.5976 33.6821 49.5976 34.3614V43.5629C49.5976 44.2421 50.1482 44.7928 50.8275 44.7928H54.2895C54.9687 44.7928 55.5194 44.2421 55.5194 43.5629V34.3614C55.5194 33.6821 54.9687 33.1315 54.2895 33.1315Z" stroke="#EF7F1A" stroke-width="1.37339" stroke-miterlimit="22.9256"/>
<path d="M49.5976 34.3158C48.231 33.2681 46.8189 32.1749 45.999 31.3094C45.1335 30.3984 44.8146 29.6695 44.5413 28.9407C44.268 28.1663 43.9947 27.3919 43.858 26.7086C43.7214 25.9798 43.6759 25.3421 43.6303 24.8866C43.5392 24.4766 43.4025 24.2944 43.0837 24.2033C42.8104 24.1122 42.4004 24.1577 42.036 24.2033C41.6715 24.2944 41.3527 24.3855 41.1249 24.7955C40.8972 25.1599 40.715 25.7976 40.6239 26.6631C40.5328 27.5286 40.5783 28.5307 40.6694 29.5329C40.7605 30.4895 40.8972 31.4005 41.1705 31.9471C41.3983 32.5393 41.6716 32.8126 41.7627 32.9948C41.8082 33.1315 41.626 33.1315 40.3506 33.1315C39.0751 33.1315 36.7519 33.1315 35.522 33.177C34.2466 33.2226 34.11 33.3137 33.8822 33.5414C33.7 33.7692 33.4267 34.1336 33.3356 34.498C33.1989 34.8624 33.2444 35.1813 33.4267 35.5457C33.6089 35.9101 34.0188 36.2746 34.1555 36.4568C34.2922 36.6845 34.2466 36.6845 34.1555 36.8212C34.0644 36.9123 33.9278 37.14 33.8822 37.4134C33.8366 37.6867 33.8822 38.0511 34.0189 38.3699C34.2011 38.6888 34.4744 39.0077 34.7021 39.1899C34.8843 39.3721 35.021 39.4632 35.0665 39.5087C35.0665 39.5543 35.021 39.5998 34.8843 39.8276C34.7932 40.0098 34.6566 40.3742 34.6566 40.7386C34.6566 41.1486 34.8388 41.5586 35.1121 41.8774C35.431 42.1963 35.8865 42.4241 36.0687 42.5607C36.2964 42.6974 36.2053 42.6974 36.1142 42.834C36.0687 42.9251 35.932 43.1073 35.9776 43.4262C36.0231 43.6995 36.2053 44.1095 36.4787 44.4283C36.752 44.7472 37.1164 44.975 38.7107 45.0661C40.305 45.1572 43.0837 45.1116 45.088 44.7472C47.1378 44.4283 48.3677 43.8362 49.5976 43.244" stroke="#EF7F1A" stroke-width="1.37339" stroke-miterlimit="22.9256"/>
<path fill-rule="evenodd" clip-rule="evenodd" d="M11.1973 37.55L12.4727 36.5934L13.0649 34.9536L14.3859 35.8646L16.1624 35.9557L15.7069 37.5045L16.1624 39.1899L14.5226 39.2354L13.0649 40.1465L12.5638 38.6433L11.1973 37.55Z" stroke="#EF7F1A" stroke-width="0.686695" stroke-miterlimit="22.9256" stroke-linecap="round" stroke-linejoin="round"/>
<path fill-rule="evenodd" clip-rule="evenodd" d="M11.1973 27.3008L12.4727 26.3442L13.0649 24.7043L14.3859 25.6154L16.1624 25.7065L15.7069 27.2553L16.1624 28.9407H14.5226L13.0649 29.8973L12.5638 28.3941L11.1973 27.3008Z" stroke="#EF7F1A" stroke-width="0.686695" stroke-miterlimit="22.9256" stroke-linecap="round" stroke-linejoin="round"/>
<path fill-rule="evenodd" clip-rule="evenodd" d="M11.1973 16.8694L12.4727 15.8673L13.0649 14.2274L14.3859 15.1385L16.1624 15.2296L15.7069 16.7783L16.1624 18.4637L14.5226 18.5093L13.0649 19.4659L12.5638 17.9627L11.1973 16.8694Z" stroke="#EF7F1A" stroke-width="0.686695" stroke-miterlimit="22.9256" stroke-linecap="round" stroke-linejoin="round"/>
<path fill-rule="evenodd" clip-rule="evenodd" d="M19.3055 32.8126L20.581 31.8561L21.2187 30.2162L22.5397 31.1272L24.2707 31.2183L23.8151 32.7671L24.2707 34.4525L22.6764 34.4981L21.2187 35.4547L20.6721 33.9514L19.3055 32.8126Z" stroke="#EF7F1A" stroke-width="0.686695" stroke-miterlimit="22.9256" stroke-linecap="round" stroke-linejoin="round"/>
<path fill-rule="evenodd" clip-rule="evenodd" d="M19.3055 22.3813L20.581 21.4247L21.2187 19.7848L22.5397 20.6958L24.2707 20.7869L23.8151 22.3357L24.2707 24.0211H22.6764L21.2187 24.9777L20.6721 23.4745L19.3055 22.3813Z" stroke="#EF7F1A" stroke-width="0.686695" stroke-miterlimit="22.9256" stroke-linecap="round" stroke-linejoin="round"/>
<path d="M32.0145 62.7402H55.3827" stroke="#EF7F1A" stroke-width="0.686695" stroke-miterlimit="22.9256" stroke-linecap="round" stroke-linejoin="round"/>
<path d="M64.9486 62.7402H80.8918" stroke="#EF7F1A" stroke-width="0.686695" stroke-miterlimit="22.9256" stroke-linecap="round" stroke-linejoin="round"/>
<path d="M31.4679 15.6851L33.5177 15.4573C33.5633 15.8673 33.6999 16.1861 33.9277 16.3684C34.1554 16.5961 34.4287 16.6872 34.7476 16.6872C35.2031 16.6872 35.5675 16.4595 35.8864 16.095C36.2053 15.6851 36.3875 14.8196 36.4786 13.5441C35.932 14.1819 35.2487 14.4552 34.4287 14.4552C33.5632 14.4552 32.8344 14.1363 32.1967 13.453C31.559 12.7698 31.2401 11.9043 31.2401 10.811C31.2401 9.67222 31.559 8.76118 32.2423 8.0779C32.9255 7.39463 33.7455 7.03021 34.7932 7.03021C35.932 7.03021 36.843 7.48573 37.5718 8.35122C38.3007 9.2167 38.6651 10.6744 38.6651 12.6786C38.6651 14.7285 38.3006 16.1861 37.5263 17.0972C36.7974 18.0082 35.7953 18.4637 34.6109 18.4637C33.7455 18.4637 33.0166 18.236 32.5156 17.7805C31.9689 17.2794 31.6045 16.5961 31.4679 15.6851ZM36.2964 10.9932C36.2964 10.3099 36.1142 9.76333 35.7953 9.39891C35.4764 8.98894 35.112 8.80674 34.7021 8.80674C34.2921 8.80674 33.9732 8.98894 33.7454 9.30781C33.4721 9.58112 33.3355 10.1277 33.3355 10.811C33.3355 11.5399 33.4721 12.0409 33.7454 12.4053C34.0188 12.7242 34.3832 12.9064 34.8387 12.9064C35.2487 12.9064 35.5676 12.7242 35.8409 12.4053C36.1142 12.0865 36.2964 11.631 36.2964 10.9932ZM40.1227 15.6851L42.2181 15.4573C42.2637 15.8673 42.4003 16.1861 42.5825 16.3684C42.8103 16.5961 43.0836 16.6872 43.448 16.6872C43.858 16.6872 44.2224 16.4595 44.5413 16.095C44.8601 15.6851 45.0423 14.8196 45.1334 13.5441C44.5868 14.1819 43.9036 14.4552 43.1292 14.4552C42.2181 14.4552 41.4893 14.1363 40.8516 13.453C40.2138 12.7698 39.895 11.9043 39.895 10.811C39.895 9.67222 40.2138 8.76118 40.8971 8.0779C41.5804 7.39463 42.4459 7.03021 43.448 7.03021C44.5868 7.03021 45.5434 7.48573 46.2722 8.35122C46.9555 9.2167 47.3199 10.6744 47.3199 12.6786C47.3199 14.7285 46.9555 16.1861 46.2267 17.0972C45.4523 18.0082 44.4957 18.4637 43.2658 18.4637C42.4003 18.4637 41.7171 18.236 41.1704 17.7805C40.6238 17.2794 40.2594 16.5961 40.1227 15.6851ZM44.9513 10.9932C44.9513 10.3099 44.769 9.76333 44.4502 9.39891C44.1313 8.98894 43.7669 8.80674 43.3569 8.80674C42.9925 8.80674 42.6281 8.98894 42.4003 9.30781C42.127 9.58112 41.9904 10.1277 41.9904 10.811C41.9904 11.5399 42.127 12.0409 42.4003 12.4053C42.7192 12.7242 43.038 12.9064 43.4936 12.9064C43.9035 12.9064 44.2224 12.7242 44.5413 12.4053C44.8146 12.0865 44.9513 11.631 44.9513 10.9932ZM48.732 9.85443C48.732 8.85229 48.9598 8.12346 49.3698 7.62238C49.8253 7.16687 50.4175 6.89355 51.1918 6.89355C51.9662 6.89355 52.5584 7.12131 53.0139 7.62238C53.4239 8.0779 53.6517 8.85229 53.6517 9.85443C53.6517 10.8566 53.4239 11.5854 53.0139 12.0409C52.5584 12.542 51.9662 12.7698 51.1918 12.7698C50.4175 12.7698 49.8253 12.542 49.3698 12.0409C48.9598 11.5854 48.732 10.8566 48.732 9.85443ZM50.4175 9.85443C50.4175 10.5377 50.463 11.0388 50.6452 11.2665C50.7819 11.4487 50.9641 11.5399 51.1918 11.5399C51.4196 11.5399 51.6018 11.4487 51.6929 11.2665C51.8751 11.0388 51.9662 10.5377 51.9662 9.85443C51.9662 9.1256 51.8751 8.62453 51.6929 8.39677C51.6018 8.21456 51.4196 8.12346 51.1918 8.12346C50.9641 8.12346 50.7819 8.21456 50.6452 8.39677C50.463 8.62453 50.4175 9.1256 50.4175 9.85443ZM52.7862 18.6915H51.2374L57.1591 6.89355H58.7079L52.7862 18.6915ZM56.2481 15.7762C56.2481 14.774 56.4759 13.9997 56.9314 13.5441C57.3414 13.0431 57.9335 12.8153 58.7079 12.8153C59.4823 12.8153 60.0745 13.0431 60.53 13.5441C60.94 13.9997 61.1677 14.774 61.1677 15.7762C61.1677 16.7783 60.94 17.5072 60.53 18.0082C60.0745 18.4637 59.4823 18.6915 58.7535 18.6915C57.9335 18.6915 57.3414 18.4637 56.9314 18.0082C56.4759 17.5072 56.2481 16.7783 56.2481 15.7762ZM57.9335 15.7762C57.9335 16.505 58.0246 16.9605 58.1613 17.2338C58.2979 17.416 58.4802 17.5072 58.7079 17.5072C58.9357 17.5072 59.1179 17.416 59.209 17.2338C59.3912 16.9605 59.4823 16.505 59.4823 15.7762C59.4823 15.0473 59.3912 14.5463 59.2546 14.3185C59.1179 14.0908 58.9357 13.9997 58.7079 13.9997C58.4802 13.9997 58.2979 14.0908 58.1613 14.3185C58.0246 14.5463 57.9335 15.0473 57.9335 15.7762Z" fill="#EF7F1A"/>
<path d="M32.1968 56.6818H75.9722" stroke="#EF7F1A" stroke-width="0.686695" stroke-miterlimit="22.9256" stroke-linecap="round" stroke-linejoin="round"/>
<path d="M64.4019 51.0334H80.3452" stroke="#EF7F1A" stroke-width="0.686695" stroke-miterlimit="22.9256" stroke-linecap="round" stroke-linejoin="round"/>
<path d="M69.1849 45.7949H77.3843" stroke="#EF7F1A" stroke-width="0.686695" stroke-miterlimit="22.9256" stroke-linecap="round" stroke-linejoin="round"/>
<path d="M69.5493 39.4177H82.0306" stroke="#EF7F1A" stroke-width="0.686695" stroke-miterlimit="22.9256" stroke-linecap="round" stroke-linejoin="round"/>
<path d="M69.5493 32.9948H76.9743" stroke="#EF7F1A" stroke-width="0.686695" stroke-miterlimit="22.9256" stroke-linecap="round" stroke-linejoin="round"/>
</svg>
