<svg width="83" height="101" viewBox="0 0 83 101" fill="none" xmlns="http://www.w3.org/2000/svg">
<path fill-rule="evenodd" clip-rule="evenodd" d="M1.23645 7.19955H17.6351V11.1626H48.9748V7.19955H65.9202L66.0113 57.3522L63.3237 54.8924L60.3173 57.4889L56.8098 56.0312L54.8966 59.4932L51.0702 59.311L50.4781 63.2284L46.8339 64.3672L47.6083 68.2391L44.6018 70.5623L46.6517 73.9787L44.6018 77.1673L47.6994 79.6727L47.2894 81.3125H46.4695V81.3581H1.23645V81.3125V19.6352V7.19955Z" stroke="#EF7F1A" stroke-width="1.37339" stroke-miterlimit="22.9256" stroke-linecap="round" stroke-linejoin="round"/>
<path fill-rule="evenodd" clip-rule="evenodd" d="M17.6351 3.46429H27.1554V4.7853H38.589V3.46429H48.9749V11.1626H17.6351V3.46429Z" stroke="#EF7F1A" stroke-width="1.37339" stroke-miterlimit="22.9256" stroke-linecap="round" stroke-linejoin="round"/>
<path d="M38.5891 1.05005H27.1554V4.78531H38.5891V1.05005Z" stroke="#EF7F1A" stroke-width="1.37339" stroke-miterlimit="22.9256" stroke-linecap="round" stroke-linejoin="round"/>
<path fill-rule="evenodd" clip-rule="evenodd" d="M17.134 16.3555H58.4952V32.7086H58.5408V56.7601L56.8098 56.0312L54.8966 59.4932L51.0702 59.311L50.4781 63.2284L46.8339 64.3672L47.6083 68.2391L44.6018 70.5623L46.3783 73.4776H44.9207L44.8752 73.5687H9.07135V23.1883L17.134 16.3555Z" stroke="#EF7F1A" stroke-width="1.37339" stroke-miterlimit="22.9256" stroke-linecap="round" stroke-linejoin="round"/>
<path fill-rule="evenodd" clip-rule="evenodd" d="M17.134 16.3555L9.07135 23.2794L17.134 23.1427V16.3555Z" stroke="#EF7F1A" stroke-width="0.686695" stroke-miterlimit="22.9256" stroke-linecap="round" stroke-linejoin="round"/>
<path d="M23.3747 30.2033H15.6764V37.856H23.3747V30.2033Z" stroke="#EF7F1A" stroke-width="0.686695" stroke-miterlimit="22.9256" stroke-linecap="round" stroke-linejoin="round"/>
<path d="M23.3747 44.6432H15.6764V52.296H23.3747V44.6432Z" stroke="#EF7F1A" stroke-width="0.686695" stroke-miterlimit="22.9256" stroke-linecap="round" stroke-linejoin="round"/>
<path d="M23.3747 58.5822H15.6764V66.2349H23.3747V58.5822Z" stroke="#EF7F1A" stroke-width="0.686695" stroke-miterlimit="22.9256" stroke-linecap="round" stroke-linejoin="round"/>
<path d="M28.2032 32.6631H52.7101" stroke="#EF7F1A" stroke-width="0.686695" stroke-miterlimit="22.9256" stroke-linecap="round" stroke-linejoin="round"/>
<path d="M28.431 35.3962H43.5087" stroke="#EF7F1A" stroke-width="0.686695" stroke-miterlimit="22.9256" stroke-linecap="round" stroke-linejoin="round"/>
<path d="M28.2032 47.103H52.7101" stroke="#EF7F1A" stroke-width="0.686695" stroke-miterlimit="22.9256" stroke-linecap="round" stroke-linejoin="round"/>
<path d="M28.431 49.8362H43.5087" stroke="#EF7F1A" stroke-width="0.686695" stroke-miterlimit="22.9256" stroke-linecap="round" stroke-linejoin="round"/>
<path d="M28.2032 61.2697H49.7037" stroke="#EF7F1A" stroke-width="0.686695" stroke-miterlimit="22.9256" stroke-linecap="round" stroke-linejoin="round"/>
<path d="M28.431 64.0028H43.5087" stroke="#EF7F1A" stroke-width="0.686695" stroke-miterlimit="22.9256" stroke-linecap="round" stroke-linejoin="round"/>
<path d="M17.1796 33.6652L19.275 35.9884L22.0992 31.6609" stroke="#EF7F1A" stroke-width="0.686695" stroke-miterlimit="22.9256" stroke-linecap="round" stroke-linejoin="round"/>
<path d="M17.1796 48.333L19.275 50.6561L22.0992 46.2831" stroke="#EF7F1A" stroke-width="0.686695" stroke-miterlimit="22.9256" stroke-linecap="round" stroke-linejoin="round"/>
<path d="M17.1796 62.2263L19.275 64.595L22.0992 60.222" stroke="#EF7F1A" stroke-width="0.686695" stroke-miterlimit="22.9256" stroke-linecap="round" stroke-linejoin="round"/>
<path fill-rule="evenodd" clip-rule="evenodd" d="M63.3237 60.1765L65.328 62.0441L67.97 60.9964L69.2454 63.4562L72.1152 63.3651L72.4796 66.0982L75.1672 67.0092L74.575 69.6968L76.8071 71.5189L75.3038 73.7965L76.8071 76.2563L74.6206 77.9417L75.1672 80.7204L72.5252 81.5403L72.1152 84.3645L69.3821 84.2279L67.97 86.7332L65.4646 85.6855L63.3237 87.5532L61.2738 85.7311L58.6318 86.7332L57.3564 84.319L54.4866 84.3645L54.1678 81.6314L51.4346 80.7204L52.0268 78.0328L49.8403 76.2563L51.298 73.9331L49.8403 71.5189L51.9813 69.8335L51.4346 67.0092L54.0766 66.1893L54.4866 63.3651L57.2653 63.5017L58.6318 60.9964L61.1827 62.0441L63.3237 60.1765Z" stroke="#EF7F1A" stroke-width="0.686695" stroke-miterlimit="22.9256" stroke-linecap="round" stroke-linejoin="round"/>
<path fill-rule="evenodd" clip-rule="evenodd" d="M56.9465 99.4422V91.6528L60.4995 90.2863L63.3237 92.8827L66.2846 90.2863L69.7921 91.7439L71.022 89.5574V99.4422L63.9159 96.3447L56.9465 99.4422Z" stroke="#EF7F1A" stroke-width="1.37339" stroke-miterlimit="22.9256" stroke-linecap="round" stroke-linejoin="round"/>
<path fill-rule="evenodd" clip-rule="evenodd" d="M63.3237 54.8925L66.1023 57.4434L69.792 56.0313L71.5686 59.4021L75.5316 59.311L75.9871 63.0918L79.7679 64.3673L78.948 68.1025L82 70.5623L79.9502 73.7965L82 77.1673L78.9936 79.4905L79.7679 83.3624L76.1238 84.5012L75.5316 88.4187L71.7053 88.2365L69.792 91.744L66.2846 90.2863L63.3237 92.8828L60.4995 90.2863L56.8098 91.744L55.0332 88.3276L51.0702 88.4187L50.6147 84.6379L46.8339 83.3624L47.6994 79.6727L44.6018 77.1673L46.6517 73.9787L44.6018 70.5623L47.6083 68.2392L46.8339 64.3673L50.478 63.2285L51.0702 59.311L54.8966 59.4932L56.8098 56.0313L60.3173 57.4889L63.3237 54.8925Z" stroke="#EF7F1A" stroke-width="1.37339" stroke-miterlimit="22.9256" stroke-linecap="round" stroke-linejoin="round"/>
<path d="M70.5665 71.7011H66.5579V79.5816H70.5665V71.7011Z" stroke="#EF7F1A" stroke-width="0.686695" stroke-miterlimit="22.9256" stroke-linecap="round" stroke-linejoin="round"/>
<path d="M66.5579 72.521C65.6013 71.7922 64.6902 71.0633 64.098 70.4712C63.5059 69.879 63.3237 69.3779 63.1415 68.8768C62.9137 68.3758 62.777 67.8292 62.6859 67.3736C62.5948 66.8726 62.5493 66.4626 62.5038 66.1437C62.4582 65.8704 62.3671 65.7338 62.1393 65.6882C61.9571 65.5971 61.6838 65.6427 61.4105 65.6882C61.1827 65.7338 61.0006 65.7793 60.8184 66.0526C60.6817 66.3259 60.545 66.7815 60.4995 67.3281C60.4084 67.9203 60.4084 68.6035 60.4995 69.2868C60.545 69.9245 60.6817 70.5167 60.8184 70.9267C61.0006 71.3367 61.1828 71.5189 61.2283 71.61C61.2739 71.7011 61.1372 71.7011 60.2717 71.7011C59.4518 71.7011 57.8574 71.7011 56.992 71.7466C56.172 71.7922 56.081 71.8377 55.8988 72.0199C55.7621 72.1566 55.5799 72.3843 55.5343 72.6577C55.4432 72.8854 55.4432 73.1132 55.5799 73.3409C55.7165 73.6143 55.9898 73.842 56.0809 73.9787C56.2176 74.1153 56.172 74.1609 56.0809 74.2064C56.0354 74.2975 55.9443 74.4342 55.8988 74.6164C55.8532 74.7986 55.8987 75.0719 55.9898 75.2541C56.1265 75.4819 56.3087 75.7096 56.4454 75.8463C56.582 75.9374 56.6731 75.983 56.7187 76.0285C56.7187 76.0741 56.6731 76.1196 56.582 76.2563C56.5364 76.3929 56.4454 76.6207 56.4454 76.894C56.4454 77.1673 56.5364 77.4406 56.7642 77.6684C56.9464 77.8506 57.2653 78.0328 57.402 78.1239C57.5386 78.1694 57.493 78.215 57.4475 78.3061C57.3564 78.3517 57.3108 78.4883 57.3564 78.6705C57.3564 78.8983 57.4931 79.1716 57.6753 79.3994C57.8575 79.5816 58.1308 79.7638 59.1785 79.8093C60.2717 79.8549 62.1393 79.8093 63.5059 79.6271C64.8725 79.3994 65.7379 78.9894 66.5579 78.5794" stroke="#EF7F1A" stroke-width="0.686695" stroke-miterlimit="22.9256" stroke-linecap="round" stroke-linejoin="round"/>
</svg>
