<svg width="89" height="81" viewBox="0 0 89 81" fill="none" xmlns="http://www.w3.org/2000/svg">
<path d="M79.5593 0.826416H9.40933C4.8558 0.826416 1.16443 4.8237 1.16443 9.75459V70.8853C1.16443 75.8162 4.8558 79.8135 9.40933 79.8135H79.5593C84.1128 79.8135 87.8042 75.8162 87.8042 70.8853V9.75459C87.8042 4.8237 84.1128 0.826416 79.5593 0.826416Z" stroke="#EF7F1A" stroke-width="1.37339" stroke-miterlimit="22.9256"/>
<path fill-rule="evenodd" clip-rule="evenodd" d="M17.9731 58.0397H21.6628L21.845 59.0418C20.7062 58.6774 19.203 58.9052 17.9731 58.9052V58.0397ZM47.2174 24.1946L47.1719 24.1035C47.4452 23.0102 47.5363 22.4636 47.9918 21.3704C48.8118 19.1839 51.0438 16.7241 53.2759 15.9041L52.0004 24.3768C52.4559 24.559 53.0025 24.6045 53.4125 24.7868C53.7769 24.0579 55.2346 13.3532 55.5534 12.761C56.009 11.8956 56.6011 11.8956 57.831 11.8956C58.2866 11.8956 58.7876 11.85 59.1976 11.9867C59.8809 12.1689 59.4709 12.0322 59.6531 12.26C60.6097 13.171 62.0674 23.5113 62.7507 24.8779C63.1606 24.6501 63.7072 24.6501 64.1628 24.4679C64.0717 23.2835 62.614 17.0885 62.5229 15.9041C62.7507 15.9952 63.6617 16.5419 63.7072 16.5874C63.7528 16.5874 63.7983 16.5874 63.7983 16.633C63.8439 16.633 63.8439 16.6785 63.8895 16.6785C63.935 16.6785 63.935 16.7241 63.9806 16.7241C63.9806 16.7696 64.0261 16.7696 64.0717 16.8152C65.256 17.7262 65.7571 18.2728 66.6681 19.5938C67.7614 21.1882 67.9891 22.0081 68.3991 23.8302C68.4902 24.3768 68.3991 24.6957 68.6269 25.2878C69.629 25.2878 70.95 25.3789 71.1778 26.5633C71.4055 28.0209 70.3123 27.9754 69.4923 27.9754H46.2153C45.942 27.9754 45.5776 27.9754 45.3498 27.9298C44.4843 27.8387 44.211 27.3377 44.4388 26.4266C44.5299 25.9711 45.031 25.5156 45.532 25.47L46.9897 25.2423C47.3085 24.9234 47.2174 24.8779 47.2174 24.1946ZM22.3461 60.4539H23.2116C23.3938 60.0895 23.3482 60.2262 23.3482 59.6795V56.4909H22.2094V53.2112C23.4393 53.1201 23.8038 52.7556 24.1682 52.7556C24.2593 52.619 24.4415 52.5279 24.6237 52.3457C24.8515 52.1635 25.1703 51.8446 25.307 51.5257C25.3981 51.3435 25.4436 51.1613 25.4892 51.0247V49.5215C28.2678 50.888 31.6387 51.0247 34.4174 49.3848C34.4174 50.2047 34.2351 51.3435 34.7818 51.9813C34.964 52.209 35.2373 52.4368 35.4195 52.5734C35.465 52.619 35.465 52.6645 35.5106 52.6645H35.5562C35.4195 53.1656 35.3739 52.9834 35.1006 53.4845C34.6451 54.3955 34.4174 55.5343 34.4174 56.6276C34.4174 58.4041 34.4174 60.1351 34.4174 61.866H22.2094L22.3461 60.4539ZM67.2147 55.3521H72.3621C72.3166 56.0809 72.271 56.0809 72.4532 56.7642C71.1778 56.3998 68.6724 56.6276 67.2147 56.6276V55.3521ZM43.2089 55.3521H48.3107V56.6276H43.3911C43.1633 56.0809 43.2089 55.9898 43.2089 55.3521ZM19.2486 54.35V54.0766C19.5674 53.8944 20.2052 53.7578 20.6607 53.8033C20.6607 54.7144 20.524 55.7621 20.7973 56.6276C20.0685 56.4453 19.9318 56.4909 19.2486 56.4909V54.35ZM68.7635 49.977C69.3557 50.2503 70.1756 50.2503 70.7678 50.5236V53.8033H68.9002C68.4902 52.7556 68.7635 51.1158 68.7635 49.977ZM48.3107 49.6581C48.9484 49.3848 51.8182 48.7926 52.1371 48.3827C52.2737 48.1549 52.3193 47.6538 52.3193 47.5172V47.4716V47.4261V45.0118C53.6403 45.2851 54.1869 46.2417 58.1044 46.2873C59.4709 46.2873 60.1997 46.1051 61.2019 45.7862C61.703 45.604 61.9763 45.5584 62.4318 45.3307C62.9329 45.0574 63.2517 44.8296 63.6617 44.8296V47.1072C63.6617 47.1983 63.6617 47.2894 63.7072 47.335C63.7072 47.6994 63.7983 47.9727 63.9806 48.2004C64.1172 48.4738 64.3905 48.656 64.5727 48.7471C64.6638 48.7926 64.7094 48.8382 64.7549 48.8837C65.1194 49.0204 65.7115 49.157 65.8482 49.2026C66.3493 49.3392 66.7592 49.4303 67.2147 49.5215V53.8033C65.3016 53.8033 65.6204 53.1201 65.6204 57.7664C65.6204 58.4952 66.4404 58.0397 67.2147 58.313L67.3514 60.3173H48.3107V58.1763H49.7228C49.7228 52.8923 50.2239 53.8033 48.3107 53.8033V49.6581ZM44.7576 50.5236C45.5776 50.478 45.9875 50.1136 46.7619 50.1136C46.7619 51.3435 46.5797 52.7556 46.8986 53.94C46.1242 53.7122 45.5776 53.8033 44.7576 53.8033V50.5236ZM22.0728 41.1399L21.9361 37.0402H37.5604C37.5604 41.1854 38.1071 44.1463 35.1462 47.0161C32.823 49.2937 28.3589 49.6581 25.9447 48.0638C24.487 47.1072 25.3525 47.6994 24.3048 46.7428C24.1226 46.5606 24.0771 46.4695 23.8949 46.2873L22.7105 44.4652C22.3005 43.4175 22.0728 42.5976 22.0728 41.1399ZM48.3107 36.0381V29.7975C54.688 29.7975 61.0197 29.7975 67.3514 29.7975C66.7137 32.5306 69.7656 41.3677 60.6097 44.3741C59.3343 44.784 57.2844 44.8296 55.8723 44.6018C55.8268 44.6018 55.6446 44.5563 55.599 44.5563C55.5534 44.5563 55.5079 44.5563 55.5079 44.5107C54.3691 44.283 53.4125 43.7364 52.5015 43.2353C51.636 42.7342 51.9548 42.7342 51.4082 42.3698C50.7249 41.8687 50.9983 42.0509 50.4972 41.4132C50.3605 41.2766 50.315 41.231 50.1783 41.0488C49.1762 39.8189 48.3107 37.7691 48.3107 36.0381ZM34.0074 25.8345C34.9184 26.2444 35.5106 26.8821 36.2394 27.5654C37.6971 28.932 38.517 31.2096 38.517 33.305C40.658 33.305 40.658 33.4416 40.658 34.8993C39.5647 35.6737 36.6494 35.3548 35.1006 35.3548C32.8686 35.3548 25.4892 35.4459 21.8906 35.4004H19.7952C19.2486 35.4004 18.8386 34.9448 18.8386 34.4438C18.8386 34.1705 18.9297 33.9427 19.0664 33.806V33.7605H19.1119C19.2486 33.5783 19.5219 33.4872 19.7496 33.4872L19.7952 33.4416C19.9774 33.3505 20.2052 33.2594 20.4329 33.1228C20.6607 32.9861 20.7973 32.8039 20.934 32.6217C21.0251 32.4395 21.1162 32.2573 21.2073 32.0751C21.2528 31.9384 21.2984 31.8018 21.3895 31.574C21.3895 31.3918 21.4351 31.2551 21.4806 31.0729C21.7995 29.9797 22.1183 29.2053 22.8016 28.2943C23.986 26.7455 24.3048 26.6544 25.7625 25.6978C25.7169 26.6999 24.7148 31.6195 24.7148 32.6217C25.2614 32.6672 25.5803 32.8494 26.1269 32.895L27.6757 24.5134C28.3134 22.0081 28.0856 22.2814 31.001 22.2814C31.4565 22.9191 31.5476 22.6458 31.7753 23.648C32.0487 24.6957 33.5063 32.5761 33.5519 33.2139C34.144 33.1683 34.4174 32.9405 35.1006 32.9405C34.9184 32.1662 34.0074 26.6999 34.0074 25.8345ZM53.7314 14.0365C50.7249 14.7653 47.9007 17.7718 46.6253 20.596C46.3975 21.0515 46.2153 21.7348 46.0331 22.2814C45.8509 22.828 45.7598 23.5113 45.6231 24.1035C43.1633 24.1035 41.979 27.1555 43.7099 28.7953C44.5754 29.6153 45.3498 29.5242 46.7619 29.5242C46.7619 34.626 46.1242 38.9079 49.495 42.6887C49.7684 42.962 50.315 43.5541 50.7249 43.6908V47.3805L46.3975 48.5649C46.3064 48.5649 45.7598 48.7015 45.4865 48.7926C43.0722 49.3848 40.6124 49.977 38.3348 50.7058C37.6971 50.9336 37.3782 51.2069 36.8316 51.5257C36.5583 51.3891 36.3305 51.298 35.9661 51.2524V48.246C36.7405 47.7449 37.6515 46.515 38.1071 45.5584C39.4281 42.8253 39.1092 39.8644 39.1092 36.7669C40.0202 36.7669 40.8857 36.7669 41.569 36.1292C42.9811 34.7626 42.0701 32.1206 39.9291 32.0751C39.9291 30.6174 39.2459 29.1597 38.517 28.0209L37.5604 26.6544C37.196 26.1533 36.6494 25.7889 36.1483 25.3789C35.5562 24.8323 34.7818 24.4679 34.0529 24.1035C34.0074 24.1035 33.9618 24.0579 33.9163 24.0579C32.5497 23.3291 33.4608 20.7326 30.3177 20.7326C28.86 20.7326 28.2223 20.6415 27.4024 21.3704C26.7646 21.9625 26.3547 22.7369 26.3091 23.8302C24.7148 24.1946 22.8927 25.7433 21.9817 26.8366C20.7973 28.2487 20.2507 29.7975 19.7952 31.5284C19.7041 31.984 19.7041 31.9384 19.2941 32.1206C18.2009 32.485 17.3809 33.1228 17.3809 34.4893C17.3809 34.9904 17.472 35.1726 17.6542 35.4915C18.5197 37.0858 19.1119 36.3569 20.524 36.9036C20.524 40.5022 20.1596 43.7364 22.1183 46.515L23.3938 48.0638C23.4393 48.1093 23.4393 48.1093 23.4849 48.1549L23.8949 48.5193V51.2524L19.7496 52.3001C18.8842 52.5734 18.5653 52.619 17.6087 52.8923C15.0122 53.53 11.778 53.94 10.7759 56.8553C10.1382 58.814 10.4115 77.217 10.4115 79.5857H12.0058V58.7685C12.0058 57.9941 12.1425 57.4019 12.5069 56.8553C13.2357 55.671 14.329 55.3065 15.6044 55.0332C16.2421 54.851 17.0621 54.4411 17.6542 54.6233V56.4909H16.3788C16.3788 60.545 15.8322 60.4539 17.7909 60.4539C17.6087 61.0461 17.6542 61.2283 17.6542 61.866H15.8322V79.5857H17.3809V63.2781H19.2486V60.4539H20.6607V63.2781C22.6194 63.2781 33.4608 63.0504 34.4174 63.4603C34.4174 64.1892 34.4174 64.9636 34.4174 65.7379C34.4174 67.1501 34.3718 75.9416 34.9184 79.4491C35.1462 80.9978 35.4195 79.2669 35.9661 79.2669V56.4909C35.9661 52.4823 39.4281 51.8446 42.5712 51.1613L43.2089 51.0702C43.2089 52.0268 43.1178 53.0289 43.3455 53.94C42.6623 53.7578 42.5256 53.8033 41.7968 53.8033V58.1763H43.2089C43.2089 60.955 43.7555 60.3173 40.9313 60.3173V77.7181C40.9313 79.5402 40.9768 79.2669 42.5256 79.2669V61.866C45.4865 61.866 44.7576 62.5038 44.7576 58.1763H46.7619C46.7619 60.3628 46.4431 61.866 47.1719 61.866H68.3535C69.0824 61.866 68.7635 60.2262 68.7635 58.1763C69.4468 58.1763 70.1756 58.0852 70.7678 58.313V61.866H73.0454V78.9936C73.0454 79.4946 74.2753 79.2669 74.5941 79.2669V61.4561C74.5941 60.7728 74.5031 60.8639 74.4575 60.3173H72.3166V58.1763H73.7287V53.8033H72.4532C72.1343 53.029 72.3166 51.8446 72.3166 50.9336C73.3643 51.0247 75.0041 51.6624 76.0518 51.8902L77.2817 52.3912C78.7849 53.1656 79.5593 54.7144 79.5593 56.4909V79.2669C80.0148 79.2669 81.1081 79.5402 81.1081 78.8569V56.6276C81.1081 55.4432 80.9259 54.6233 80.5159 53.7122C80.4704 53.6667 80.4248 53.5756 80.4248 53.53C79.8326 52.3457 78.7394 51.3891 77.6006 50.7969C76.234 50.1592 74.1842 49.8859 72.681 49.4304L65.2105 47.3805V43.4175C65.666 43.1897 65.666 43.2808 66.0304 42.8253C66.167 42.5976 66.1215 42.6431 66.3037 42.4154C69.5834 38.6801 68.9002 34.3071 68.9002 29.5242C69.9934 29.5242 71.1322 29.6608 71.9977 28.7953C72.9543 27.7932 73.0909 25.6067 71.861 24.7412C71.5422 24.5134 71.3144 24.3768 71.0411 24.2857C70.54 24.149 70.039 24.2401 69.9023 23.6935C69.9023 23.5569 69.8568 23.3746 69.8568 23.1924L69.3557 21.4159C69.219 21.0059 69.1735 20.9604 68.9913 20.6415C68.8546 20.2771 68.8546 20.1405 68.6724 19.8216L68.4902 19.5938C67.488 17.9995 66.3948 16.6785 64.8916 15.5397L64.6183 15.3575C64.345 15.1753 64.5727 15.312 64.2539 15.1297C63.9806 14.9475 63.8439 14.902 63.5706 14.7198C62.9784 14.3554 62.5684 14.1732 61.9307 14.0365C61.9307 12.7155 61.3841 11.7134 60.5186 10.9845C60.4731 10.9845 60.4275 10.939 60.4275 10.8934C59.3798 10.119 57.7855 10.3468 56.5556 10.3468C54.8702 10.3468 53.7314 12.5333 53.7314 14.0365Z" fill="#EF7F1A"/>
<path fill-rule="evenodd" clip-rule="evenodd" d="M26.6735 66.5123H34.8273V79.859H26.6735C25.307 79.859 24.2137 78.7202 24.2137 77.3992V68.9266C24.2137 67.6056 25.307 66.5123 26.6735 66.5123V66.5123Z" stroke="#EF7F1A" stroke-width="0.686695" stroke-miterlimit="22.9256" stroke-linecap="round" stroke-linejoin="round"/>
<path d="M64.2083 66.5123H51.8637C49.8763 66.5123 48.2651 67.5932 48.2651 68.9266V77.4448C48.2651 78.7781 49.8763 79.859 51.8637 79.859H64.2083C66.1958 79.859 67.8069 78.7781 67.8069 77.4448V68.9266C67.8069 67.5932 66.1958 66.5123 64.2083 66.5123Z" stroke="#EF7F1A" stroke-width="0.686695" stroke-miterlimit="22.9256" stroke-linecap="round" stroke-linejoin="round"/>
<path d="M19.704 32.895L38.9725 32.9406" stroke="#EF7F1A" stroke-width="0.686695" stroke-miterlimit="22.9256" stroke-linecap="round" stroke-linejoin="round"/>
<path d="M46.5342 24.7867L69.4923 24.8323" stroke="#EF7F1A" stroke-width="0.686695" stroke-miterlimit="22.9256"/>
<path d="M23.986 52.3456C24.8514 53.4389 25.7169 54.5321 26.6735 55.3976C27.6757 56.2631 28.8145 56.8553 29.9077 56.9008C31.0465 56.9008 32.1853 56.3542 33.0963 55.5343C34.0074 54.7143 34.6907 53.6211 35.4195 52.5734" stroke="#EF7F1A" stroke-width="0.686695" stroke-miterlimit="22.9256" stroke-linecap="round" stroke-linejoin="round"/>
<path d="M51.5449 48.1093C52.5015 49.4759 53.5036 50.8424 54.6424 51.8901C55.7812 52.9378 57.0566 53.7122 58.3321 53.7578C59.6531 53.7578 60.9286 53.0745 61.9763 52.0268C63.0239 51.0246 63.8439 49.7036 64.6183 48.3826" stroke="#EF7F1A" stroke-width="0.686695" stroke-miterlimit="22.9256" stroke-linecap="round" stroke-linejoin="round"/>
</svg>
