<svg width="83" height="84" viewBox="0 0 83 84" fill="none" xmlns="http://www.w3.org/2000/svg">
<path fill-rule="evenodd" clip-rule="evenodd" d="M41.4773 7.8045C60.4269 7.8045 75.7779 23.2011 75.7779 42.1507C75.7779 49.439 73.5003 56.2262 69.5828 61.7835H13.3718C9.4543 56.2262 7.1767 49.439 7.1767 42.1507C7.1767 23.2011 22.5277 7.8045 41.4773 7.8045V7.8045Z" stroke="#EF7F1A" stroke-width="0.686695" stroke-miterlimit="22.9256" stroke-linecap="round" stroke-linejoin="round"/>
<path d="M23.0287 61.5103C17.7447 56.454 14.7383 49.439 14.7383 42.1507C14.7383 27.3463 26.7185 15.3661 41.4773 15.3661C45.9414 15.3661 50.3144 16.5049 54.1863 18.6003" stroke="#EF7F1A" stroke-width="1.37339" stroke-miterlimit="22.9256" stroke-linecap="round" stroke-linejoin="round"/>
<path d="M41.4773 47.4803C44.4207 47.4803 46.8068 45.0941 46.8068 42.1507C46.8068 39.2072 44.4207 36.8211 41.4773 36.8211C38.5338 36.8211 36.1477 39.2072 36.1477 42.1507C36.1477 45.0941 38.5338 47.4803 41.4773 47.4803Z" stroke="#EF7F1A" stroke-width="1.37339" stroke-miterlimit="22.9256" stroke-linecap="round" stroke-linejoin="round"/>
<path d="M45.3948 38.4609L60.6091 22.9277" stroke="#EF7F1A" stroke-width="1.37339" stroke-miterlimit="22.9256" stroke-linecap="round" stroke-linejoin="round"/>
<path d="M61.429 45.9315L68.1252 47.1158M61.0646 36.6844L67.5785 34.7712L61.0646 36.6844ZM57.7393 54.313L63.2511 58.3216L57.7393 54.313Z" stroke="#EF7F1A" stroke-width="1.37339" stroke-miterlimit="22.9256" stroke-linecap="round" stroke-linejoin="round"/>
<path fill-rule="evenodd" clip-rule="evenodd" d="M41.4772 1.51831C63.9343 1.51831 82.1096 19.6935 82.1096 42.1506C82.1096 49.9856 79.8775 57.3194 76.0056 63.5145C76.37 62.9679 76.6889 62.3757 77.0078 61.7835H5.94671C6.26557 62.3757 6.63004 62.9679 6.99445 63.5145C3.12254 57.3194 0.890442 49.9856 0.890442 42.1506C0.890442 19.6935 19.0657 1.51831 41.4772 1.51831V1.51831ZM76.0056 63.56C75.6412 64.1067 75.2768 64.6533 74.9123 65.1999C75.2768 64.6533 75.6412 64.1067 76.0056 63.56ZM74.8668 65.2455C74.5024 65.7465 74.138 66.2931 73.728 66.7942C74.138 66.2931 74.5024 65.7465 74.8668 65.2455ZM73.6825 66.8398C73.3181 67.3408 72.9081 67.8419 72.4981 68.343C72.9081 67.8419 73.3181 67.3408 73.6825 66.8398ZM72.4526 68.3885C72.0426 68.8896 71.6326 69.3451 71.2226 69.8006C71.6326 69.3451 72.0426 68.8896 72.4526 68.3885ZM71.1315 69.8917C70.9949 70.0284 70.8127 70.2106 70.676 70.3473C70.8127 70.2106 70.9949 70.0284 71.1315 69.8917ZM70.676 70.3473C70.4027 70.6206 70.1294 70.9394 69.8105 71.2128C70.1294 70.9394 70.4027 70.6206 70.676 70.3473ZM69.7194 71.3039C69.5828 71.4405 69.4461 71.5772 69.3095 71.7138C69.4461 71.5772 69.5828 71.4405 69.7194 71.3039ZM69.1728 71.8049C68.9451 72.0782 68.6718 72.306 68.3984 72.5338C68.6718 72.306 68.9451 72.0782 69.1728 71.8049ZM68.2618 72.6704C68.1251 72.8071 67.9885 72.8982 67.8518 73.0348C67.9885 72.8982 68.1251 72.8071 68.2618 72.6704ZM67.6696 73.1715C67.3963 73.3992 67.1685 73.5815 66.8952 73.8092C67.1685 73.5815 67.3963 73.3992 67.6696 73.1715ZM66.713 73.9459C66.5764 74.037 66.4397 74.1736 66.303 74.2647C66.4397 74.1736 66.5764 74.037 66.713 73.9459ZM66.0753 74.4469C65.8931 74.5836 65.6653 74.7658 65.4375 74.948C65.6653 74.7658 65.8931 74.5836 66.0753 74.4469ZM65.1642 75.1302C65.0276 75.2213 64.8909 75.3124 64.7543 75.4035C64.8909 75.3124 65.0276 75.2213 65.1642 75.1302ZM64.481 75.6313C64.3443 75.7224 64.2077 75.8135 64.071 75.9046C64.2077 75.8135 64.3443 75.7224 64.481 75.6313ZM63.4788 76.269C63.3877 76.3601 63.2511 76.4057 63.1144 76.4968C63.2511 76.4057 63.3877 76.3601 63.4788 76.269ZM62.7956 76.7245C62.6589 76.7701 62.5223 76.8612 62.4312 76.9523C62.5223 76.8612 62.6589 76.7701 62.7956 76.7245ZM61.7934 77.3167C61.7023 77.3623 61.5656 77.4078 61.4745 77.4989C61.5656 77.4078 61.7023 77.3623 61.7934 77.3167ZM61.0646 77.7267C60.9279 77.7722 60.8368 77.8633 60.7002 77.9089C60.8368 77.8633 60.9279 77.7722 61.0646 77.7267ZM60.0624 78.2733C59.9258 78.3189 59.8346 78.3644 59.7435 78.41C59.8346 78.3644 59.9258 78.3189 60.0624 78.2733ZM59.2881 78.6377C59.1514 78.6833 59.0603 78.7288 58.9692 78.8199C59.0603 78.7288 59.1514 78.6833 59.2881 78.6377ZM58.3314 79.0932C58.2403 79.1388 58.1037 79.1843 58.0126 79.2299C58.1037 79.1843 58.2403 79.1388 58.3314 79.0932ZM57.4659 79.4576C57.3748 79.5032 57.2382 79.5488 57.1471 79.5943C57.2382 79.5488 57.3748 79.5032 57.4659 79.4576ZM55.5984 80.232C55.5073 80.2776 55.3706 80.2776 55.2795 80.3231C55.3706 80.2776 55.5073 80.2776 55.5984 80.232ZM54.6873 80.5509C54.5962 80.5509 54.5507 80.5964 54.4596 80.5964C54.5507 80.5964 54.5962 80.5509 54.6873 80.5509ZM52.7741 81.1431C52.683 81.1886 52.6375 81.1886 52.5464 81.2342C52.6375 81.1886 52.683 81.1886 52.7741 81.1431ZM51.7264 81.4164C51.6353 81.4619 51.5442 81.4619 51.4531 81.5075C51.5442 81.4619 51.6353 81.4619 51.7264 81.4164ZM50.8154 81.6441C50.7243 81.6897 50.6787 81.6897 50.5876 81.6897C50.6787 81.6897 50.7243 81.6897 50.8154 81.6441ZM49.7677 81.9175C49.6766 81.9175 49.5855 81.9175 49.4944 81.963C49.5855 81.9175 49.6766 81.9175 49.7677 81.9175ZM47.7178 82.2819C47.6723 82.2819 47.5812 82.2819 47.5357 82.2819C47.5812 82.2819 47.6723 82.2819 47.7178 82.2819ZM46.8068 82.373C46.7157 82.4185 46.6701 82.4185 46.579 82.4185C46.6701 82.4185 46.7157 82.4185 46.8068 82.373ZM36.421 82.4185C36.3299 82.4185 36.2387 82.4185 36.1932 82.373C36.2387 82.4185 36.3299 82.4185 36.421 82.4185ZM35.4644 82.2819C35.3733 82.2819 35.3277 82.2819 35.2366 82.2819C35.3277 82.2819 35.3733 82.2819 35.4644 82.2819ZM34.3711 82.0997C34.28 82.0997 34.2345 82.0997 34.1434 82.0541C34.2345 82.0997 34.28 82.0997 34.3711 82.0997ZM33.4601 81.963C33.369 81.9175 33.3235 81.9175 33.2323 81.9175C33.3235 81.9175 33.369 81.9175 33.4601 81.963ZM32.3668 81.6897C32.3213 81.6897 32.2302 81.6897 32.1847 81.6441C32.2302 81.6897 32.3213 81.6897 32.3668 81.6897ZM30.4081 81.2342C30.3626 81.1886 30.2715 81.1886 30.2259 81.1431C30.2715 81.1886 30.3626 81.1886 30.4081 81.2342ZM29.5882 80.9609C29.4971 80.9153 29.406 80.9153 29.3149 80.8698C29.406 80.9153 29.4971 80.9153 29.5882 80.9609ZM28.495 80.5964C28.4494 80.5964 28.3583 80.5509 28.3127 80.5509C28.3583 80.5509 28.4494 80.5964 28.495 80.5964ZM27.675 80.3231C27.5839 80.2776 27.4928 80.2776 27.4017 80.232C27.4928 80.2776 27.5839 80.2776 27.675 80.3231ZM25.853 79.5943C25.7163 79.5488 25.6252 79.5032 25.5341 79.4576C25.6252 79.5032 25.7163 79.5488 25.853 79.5943ZM24.9875 79.2299C24.8508 79.1843 24.7597 79.1388 24.623 79.0932C24.7597 79.1388 24.8508 79.1843 24.9875 79.2299ZM24.0308 78.8199C23.9397 78.7288 23.8031 78.6833 23.712 78.6377C23.8031 78.6833 23.9397 78.7288 24.0308 78.8199ZM23.2565 78.41C23.1198 78.3644 23.0287 78.3189 22.9376 78.2733C23.0287 78.3189 23.1198 78.3644 23.2565 78.41ZM22.2543 77.9089C22.1632 77.8633 22.0266 77.7722 21.9355 77.7267C22.0266 77.7722 22.1632 77.8633 22.2543 77.9089ZM21.5255 77.4989C21.3888 77.4078 21.2978 77.3623 21.1611 77.3167C21.2978 77.3623 21.3888 77.4078 21.5255 77.4989ZM20.5689 76.9523C20.4323 76.8612 20.2956 76.7701 20.2045 76.7245C20.2956 76.7701 20.4323 76.8612 20.5689 76.9523ZM19.8401 76.4968C19.749 76.4057 19.6123 76.3601 19.4756 76.269C19.6123 76.3601 19.749 76.4057 19.8401 76.4968ZM18.929 75.9046C18.7924 75.8135 18.6557 75.7224 18.5191 75.6313C18.6557 75.7224 18.7924 75.8135 18.929 75.9046ZM18.2458 75.4035C18.1091 75.3124 17.9724 75.2213 17.8358 75.1302C17.9724 75.2213 18.1091 75.3124 18.2458 75.4035ZM17.5625 74.948C17.3347 74.7658 17.107 74.5836 16.8792 74.4469C17.107 74.5836 17.3347 74.7658 17.5625 74.948ZM16.6514 74.2647C16.5148 74.1736 16.3781 74.037 16.2415 73.9459C16.3781 74.037 16.5148 74.1736 16.6514 74.2647ZM16.1048 73.8092C15.8315 73.5815 15.5582 73.3992 15.3304 73.1715C15.5582 73.3992 15.8315 73.5815 16.1048 73.8092ZM15.1482 73.0348C15.0116 72.8982 14.8749 72.8071 14.7383 72.6704C14.8749 72.8071 15.0116 72.8982 15.1482 73.0348ZM14.6016 72.5338C14.3283 72.306 14.055 72.0782 13.7816 71.8049C14.055 72.0782 14.3283 72.306 14.6016 72.5338ZM13.6906 71.7138C13.5539 71.5772 13.4173 71.4405 13.235 71.3039C13.4173 71.4405 13.5539 71.5772 13.6906 71.7138ZM13.1439 71.2128C12.8706 70.9394 12.5973 70.6206 12.2784 70.3473C12.5973 70.6206 12.8706 70.9394 13.1439 71.2128ZM12.2784 70.3473C12.1418 70.2106 12.0051 70.0284 11.8685 69.8917C12.0051 70.0284 12.1418 70.2106 12.2784 70.3473ZM11.7774 69.8006C11.3674 69.3451 10.9575 68.8896 10.5475 68.3885C10.9575 68.8896 11.3674 69.3451 11.7774 69.8006ZM10.4564 68.343C10.0464 67.8419 9.68202 67.3408 9.27205 66.8398C9.68202 67.3408 10.0464 67.8419 10.4564 68.343ZM9.22646 66.7942C8.81649 66.2931 8.45207 65.7465 8.08766 65.2455C8.45207 65.7465 8.81649 66.2931 9.22646 66.7942ZM8.08766 65.1999C7.67769 64.6533 7.35887 64.1067 6.99445 63.56C7.35887 64.1067 7.67769 64.6533 8.08766 65.1999Z" stroke="#EF7F1A" stroke-width="1.37339" stroke-miterlimit="22.9256" stroke-linecap="round" stroke-linejoin="round"/>
<path fill-rule="evenodd" clip-rule="evenodd" d="M77.0078 61.7835C70.0839 74.3103 56.7827 82.7374 41.4773 82.7374C26.2174 82.7374 12.8707 74.3103 5.94678 61.7835H77.0078V61.7835Z" stroke="#EF7F1A" stroke-width="1.37339" stroke-miterlimit="22.9256" stroke-linecap="round" stroke-linejoin="round"/>
<path fill-rule="evenodd" clip-rule="evenodd" d="M73.2725 67.4319C65.802 76.7701 54.3685 82.7374 41.4773 82.7374C28.6317 82.7374 17.1526 76.7701 9.7276 67.4319H73.2725Z" stroke="#EF7F1A" stroke-width="0.686695" stroke-miterlimit="22.9256" stroke-linecap="round" stroke-linejoin="round"/>
</svg>
