<svg width="22" height="23" viewBox="0 0 22 23" fill="none" xmlns="http://www.w3.org/2000/svg">
<path fill-rule="evenodd" clip-rule="evenodd" d="M22 11.2861V20.8195C22 21.5528 21.2667 22.2861 20.5333 22.2861H2.2C0.733333 22.2861 0 21.5528 0 20.8195V11.2861L11 16.4195L22 11.2861Z" fill="#EF7F1A"/>
<path fill-rule="evenodd" clip-rule="evenodd" d="M2.2 10.5528H3.66667V6.88613C3.66667 6.1528 4.4 5.41947 5.13333 5.41947H17.6C18.3333 5.41947 19.0667 6.1528 19.0667 6.88613V10.5528H20.5333C21.2667 10.5528 22 9.81947 22 9.08613V5.41947L11 0.286133L0 5.41947V9.08613C0 9.81947 0.733333 10.5528 2.2 10.5528Z" fill="#EF7F1A"/>
</svg>
