<svg width="25" height="27" viewBox="0 0 25 27" fill="none" xmlns="http://www.w3.org/2000/svg">
<path fill-rule="evenodd" clip-rule="evenodd" d="M4.6875 0.411133C4.6875 0.411133 3.90625 0.411133 3.90625 1.19238C3.125 1.19238 3.125 1.97363 2.34375 1.97363C2.34375 2.75488 2.34375 2.75488 1.5625 2.75488V4.31738C0.78125 4.31738 0.78125 4.31738 0.78125 4.31738C0.78125 4.31738 0.78125 4.31738 0.78125 5.09863V5.87988C0 5.87988 0 5.87988 0 6.66113V7.44238C0 8.22363 0 8.22363 0 8.22363C0 8.22363 0 8.22363 0 9.00488V9.78613C0 10.5674 0 10.5674 0 10.5674L0.78125 11.3486C0.78125 12.1299 0.78125 12.1299 0.78125 12.1299V12.9111L1.5625 13.6924C1.5625 14.4736 1.5625 14.4736 1.5625 14.4736C1.5625 14.4736 1.5625 14.4736 1.5625 15.2549H2.34375V16.0361C2.34375 16.0361 2.34375 16.0361 3.125 16.0361V16.8174L3.90625 17.5986C3.90625 17.5986 3.90625 17.5986 3.90625 18.3799C3.90625 18.3799 4.6875 18.3799 3.90625 18.3799C4.6875 18.3799 4.6875 19.1611 5.46875 19.1611L6.25 20.7236L7.03125 21.5049C7.8125 22.2861 7.8125 21.5049 7.8125 22.2861C7.8125 22.2861 8.59375 22.2861 8.59375 23.0674L10.1562 23.8486C10.1562 23.8486 10.1562 23.8486 10.1562 24.6299C10.1562 24.6299 10.1562 24.6299 10.9375 24.6299C11.7188 24.6299 10.9375 24.6299 11.7188 24.6299L12.5 25.4111C13.2812 25.4111 13.2812 26.1924 13.2812 26.1924H14.0625C14.8438 26.1924 14.8438 26.1924 14.8438 26.1924C14.8438 26.1924 14.8438 26.1924 15.625 26.1924L16.4062 26.9736H17.9688L19.5312 26.1924H20.3125C20.3125 26.1924 20.3125 26.1924 21.0938 25.4111C21.875 25.4111 21.875 25.4111 21.875 25.4111L22.6562 24.6299C22.6562 23.8486 22.6562 23.8486 23.4375 23.8486L24.2188 23.0674C24.2188 23.0674 24.2188 23.0674 24.2188 22.2861V21.5049C24.2188 20.7236 24.2188 20.7236 24.2188 20.7236C23.4375 20.7236 23.4375 20.7236 23.4375 20.7236C23.4375 19.9424 23.4375 20.7236 23.4375 19.9424C22.6562 19.9424 22.6562 19.9424 22.6562 19.9424C22.6562 19.1611 22.6562 19.1611 22.6562 19.1611C22.6562 19.1611 22.6562 19.1611 21.875 19.1611L20.3125 17.5986H19.5312L18.75 16.8174L17.9688 17.5986H17.1875C17.1875 17.5986 17.1875 17.5986 16.4062 18.3799H15.625C15.625 19.1611 14.8438 19.1611 14.8438 19.9424H14.0625H13.2812C13.2812 19.9424 12.5 19.9424 12.5 19.1611C12.5 19.1611 12.5 19.1611 11.7188 19.1611L10.1562 17.5986C10.1562 16.8174 8.59375 16.0361 8.59375 15.2549C7.8125 15.2549 8.59375 15.2549 7.8125 15.2549C7.8125 15.2549 7.8125 15.2549 7.8125 14.4736L7.03125 13.6924V12.9111C6.25 12.1299 6.25 11.3486 6.25 11.3486C6.25 10.5674 7.03125 10.5674 7.03125 9.78613C7.03125 9.78613 7.03125 9.78613 7.8125 9.78613L8.59375 9.00488C8.59375 8.22363 8.59375 8.22363 8.59375 8.22363C9.375 7.44238 10.1562 7.44238 9.375 6.66113V5.87988V5.09863V4.31738L8.59375 3.53613L7.8125 2.75488C7.8125 1.97363 7.8125 1.97363 7.8125 1.97363H7.03125V1.19238C7.03125 1.19238 6.25 1.19238 6.25 0.411133H5.46875H4.6875V0.411133ZM12.5 9.78613H13.2812C13.2812 9.78613 14.0625 10.5674 14.8438 10.5674H15.625C15.625 11.3486 16.4062 11.3486 16.4062 11.3486V12.1299C16.4062 12.1299 17.1875 12.1299 17.1875 12.9111V13.6924C17.1875 13.6924 17.1875 13.6924 17.1875 14.4736L17.9688 15.2549H20.3125V14.4736L19.5312 13.6924V12.9111V12.1299C19.5312 12.1299 19.5312 12.1299 19.5312 11.3486H18.75V10.5674H17.9688C17.9688 9.78613 17.9688 10.5674 17.9688 9.78613C17.1875 9.78613 17.1875 9.78613 17.1875 9.00488C16.4062 9.00488 16.4062 9.00488 16.4062 9.00488C16.4062 8.22363 14.8438 8.22363 14.8438 8.22363H14.0625L13.2812 7.44238H12.5V9.78613ZM12.5 5.09863H13.2812H14.0625C14.0625 5.09863 14.0625 5.09863 14.0625 5.87988H14.8438C15.625 5.87988 15.625 5.87988 16.4062 5.87988C16.4062 5.87988 17.1875 6.66113 17.9688 6.66113L18.75 7.44238C19.5312 7.44238 18.75 7.44238 19.5312 7.44238C19.5312 8.22363 19.5312 8.22363 19.5312 8.22363C20.3125 8.22363 20.3125 8.22363 20.3125 9.00488L21.0938 9.78613L21.875 11.3486C21.875 12.1299 21.875 12.1299 21.875 12.9111L22.6562 13.6924V15.2549H23.4375C24.2188 14.4736 24.2188 15.2549 25 15.2549V14.4736V13.6924L24.2188 12.9111V12.1299V11.3486V10.5674L23.4375 9.78613C23.4375 9.78613 23.4375 9.78613 23.4375 9.00488C22.6562 9.00488 22.6562 8.22363 22.6562 8.22363C22.6562 8.22363 22.6562 8.22363 22.6562 7.44238C22.6562 7.44238 22.6562 7.44238 21.875 7.44238C21.875 6.66113 21.875 6.66113 21.875 6.66113C21.875 6.66113 21.875 6.66113 21.0938 6.66113C21.0938 6.66113 21.0938 6.66113 21.0938 5.87988C20.3125 5.87988 20.3125 5.87988 20.3125 5.87988C20.3125 5.09863 20.3125 5.09863 20.3125 5.09863H19.5312C19.5312 5.09863 18.75 5.09863 18.75 4.31738H17.9688C17.9688 4.31738 17.9688 4.31738 17.1875 4.31738C17.1875 3.53613 17.1875 3.53613 17.1875 3.53613H16.4062H15.625H14.8438V2.75488H14.0625C13.2813 2.75488 13.2812 2.75488 13.2812 2.75488H12.5V5.09863Z" fill="#EF7F1A"/>
</svg>
