<svg width="101" height="81" viewBox="0 0 101 81" fill="none" xmlns="http://www.w3.org/2000/svg">
<path fill-rule="evenodd" clip-rule="evenodd" d="M41.746 16.8026H35.8636V31.5084C43.484 31.5084 49.6337 37.6582 49.6337 45.2785C49.6337 52.8988 43.484 59.0485 35.8636 59.0485V73.7544H41.746V67.3373C43.7513 66.8026 45.623 66.0004 47.361 64.9309L51.9064 69.61L60.1952 61.3213L55.6497 56.6421C56.5856 54.9042 57.3877 53.0325 57.9225 51.1608H64.4733V39.3961H57.9225C57.3877 37.3908 56.5856 35.5191 55.6497 33.9149L60.1952 29.2357L51.9064 20.9469L47.361 25.4924C45.623 24.5566 43.7513 23.7544 41.746 23.2197V16.8026V16.8026Z" stroke="#EF7F1A" stroke-width="2.13904" stroke-miterlimit="22.9256" stroke-linecap="round" stroke-linejoin="round"/>
<path d="M35.1952 52.3641C39.0346 52.3641 42.1471 49.2516 42.1471 45.4122C42.1471 41.5728 39.0346 38.4603 35.1952 38.4603C31.3558 38.4603 28.2433 41.5728 28.2433 45.4122C28.2433 49.2516 31.3558 52.3641 35.1952 52.3641Z" stroke="#EF7F1A" stroke-width="1.06952" stroke-miterlimit="22.9256" stroke-linecap="round" stroke-linejoin="round"/>
<path d="M30.5161 40.332H24.0989V31.1074" stroke="#EF7F1A" stroke-width="1.06952" stroke-miterlimit="22.9256" stroke-linecap="round" stroke-linejoin="round"/>
<path d="M28.2433 45.4122H15.5428" stroke="#EF7F1A" stroke-width="1.06952" stroke-miterlimit="22.9256" stroke-linecap="round" stroke-linejoin="round"/>
<path d="M30.5161 50.4924H24.0989V60.118" stroke="#EF7F1A" stroke-width="1.06952" stroke-miterlimit="22.9256" stroke-linecap="round" stroke-linejoin="round"/>
<path d="M23.9652 67.8721C26.1064 67.8721 27.8422 66.1363 27.8422 63.9951C27.8422 61.8538 26.1064 60.118 23.9652 60.118C21.824 60.118 20.0882 61.8538 20.0882 63.9951C20.0882 66.1363 21.824 67.8721 23.9652 67.8721Z" stroke="#EF7F1A" stroke-width="1.06952" stroke-miterlimit="22.9256" stroke-linecap="round" stroke-linejoin="round"/>
<path d="M23.9652 31.1073C26.1064 31.1073 27.8422 29.3715 27.8422 27.2303C27.8422 25.0891 26.1064 23.3533 23.9652 23.3533C21.824 23.3533 20.0882 25.0891 20.0882 27.2303C20.0882 29.3715 21.824 31.1073 23.9652 31.1073Z" stroke="#EF7F1A" stroke-width="1.06952" stroke-miterlimit="22.9256" stroke-linecap="round" stroke-linejoin="round"/>
<path d="M11.7995 48.8881C13.9407 48.8881 15.6765 47.1523 15.6765 45.0111C15.6765 42.8699 13.9407 41.1341 11.7995 41.1341C9.65825 41.1341 7.92245 42.8699 7.92245 45.0111C7.92245 47.1523 9.65825 48.8881 11.7995 48.8881Z" stroke="#EF7F1A" stroke-width="1.06952" stroke-miterlimit="22.9256" stroke-linecap="round" stroke-linejoin="round"/>
<path d="M72.6283 11.7224H1.63904V78.9683H72.6283V11.7224Z" stroke="#EF7F1A" stroke-width="2.13904" stroke-miterlimit="22.9256" stroke-linecap="round" stroke-linejoin="round"/>
<path d="M99.3663 28.7009H72.6283V70.4122H99.3663V28.7009Z" stroke="#EF7F1A" stroke-width="2.13904" stroke-miterlimit="22.9256" stroke-linecap="round" stroke-linejoin="round"/>
<path fill-rule="evenodd" clip-rule="evenodd" d="M8.99198 1.42822H66.4786L72.6283 11.7223H1.63904L8.99198 1.42822Z" stroke="#EF7F1A" stroke-width="2.13904" stroke-miterlimit="22.9256" stroke-linecap="round" stroke-linejoin="round"/>
<path fill-rule="evenodd" clip-rule="evenodd" d="M72.6283 21.0806H94.6872L99.5 28.7009H72.6283V21.0806Z" stroke="#EF7F1A" stroke-width="2.13904" stroke-miterlimit="22.9256" stroke-linecap="round" stroke-linejoin="round"/>
<path d="M95.0882 35.9202H72.6283V42.3373H95.0882V35.9202Z" stroke="#EF7F1A" stroke-width="1.06952" stroke-miterlimit="22.9256" stroke-linecap="round" stroke-linejoin="round"/>
<path d="M95.0882 47.2838H72.6283V53.7009H95.0882V47.2838Z" stroke="#EF7F1A" stroke-width="1.06952" stroke-miterlimit="22.9256" stroke-linecap="round" stroke-linejoin="round"/>
<path d="M95.0882 58.6475H72.6283V65.0646H95.0882V58.6475Z" stroke="#EF7F1A" stroke-width="1.06952" stroke-miterlimit="22.9256" stroke-linecap="round" stroke-linejoin="round"/>
</svg>
