<svg width="93" height="87" viewBox="0 0 93 87" fill="none" xmlns="http://www.w3.org/2000/svg">
<path fill-rule="evenodd" clip-rule="evenodd" d="M16.1437 6.25403H44.2918C44.2918 7.36514 45.0326 8.10588 46.1437 8.10588C47.2548 8.10588 47.9955 7.36514 47.9955 6.25403H76.1437C81.6992 6.25403 85.7733 10.6985 85.7733 15.8837V41.4392C85.0325 41.4392 84.2918 42.18 84.2918 43.2911C84.2918 44.0318 85.0325 44.7725 85.7733 44.7725V70.6985C85.7733 75.8837 81.6992 80.3281 76.1437 80.3281H47.9955C47.9955 79.217 47.2548 78.4762 46.1437 78.4762C45.0326 78.4762 44.2918 79.217 44.2918 80.3281H16.1437C10.9585 80.3281 6.51404 75.8837 6.51404 70.6985V44.7725C7.62515 44.7725 8.36589 44.0318 8.36589 43.2911C8.36589 42.18 7.62515 41.4392 6.51404 41.4392V15.8837C6.51404 10.6985 10.9585 6.25403 16.1437 6.25403V6.25403Z" stroke="#EF7F1A" stroke-miterlimit="22.9256" stroke-linecap="round" stroke-linejoin="round"/>
<path d="M81.329 1.43921H11.329C5.80613 1.43921 1.32898 6.41382 1.32898 12.5503V74.4022C1.32898 80.5387 5.80613 85.5133 11.329 85.5133H81.329C86.8518 85.5133 91.329 80.5387 91.329 74.4022V12.5503C91.329 6.41382 86.8518 1.43921 81.329 1.43921Z" stroke="#EF7F1A" stroke-width="2" stroke-miterlimit="22.9256" stroke-linecap="round" stroke-linejoin="round"/>
<path d="M46.5142 74.0318C63.4918 74.0318 77.2549 60.2687 77.2549 43.291C77.2549 26.3134 63.4918 12.5503 46.5142 12.5503C29.5365 12.5503 15.7734 26.3134 15.7734 43.291C15.7734 60.2687 29.5365 74.0318 46.5142 74.0318Z" stroke="#EF7F1A" stroke-width="2" stroke-miterlimit="22.9256" stroke-linecap="round" stroke-linejoin="round"/>
<path d="M46.1437 18.4763C46.1437 18.4763 46.1437 18.4763 46.514 18.4763C59.8474 18.4763 70.9585 29.5874 70.9585 43.2911C70.9585 56.6245 59.8474 67.7356 46.514 67.7356C32.8103 67.7356 21.6992 56.6245 21.6992 43.2911C21.6992 35.143 25.7733 27.3652 32.8103 22.5504" stroke="#EF7F1A" stroke-miterlimit="22.9256" stroke-linecap="round" stroke-linejoin="round"/>
<path fill-rule="evenodd" clip-rule="evenodd" d="M46.1438 78.4763C47.2549 78.4763 47.9957 79.217 47.9957 80.3282C47.9957 81.0689 47.2549 82.18 46.1438 82.18C45.0327 82.18 44.292 81.0689 44.292 80.3282C44.292 79.217 45.0327 78.4763 46.1438 78.4763ZM5.03271 43.2911C5.03271 42.18 5.77346 41.4393 6.5142 41.4393C7.62531 41.4393 8.36605 42.18 8.36605 43.2911C8.36605 44.0318 7.62531 44.7726 6.5142 44.7726C5.77346 44.7726 5.03271 44.0318 5.03271 43.2911V43.2911ZM46.1438 4.77258C47.2549 4.77258 47.9957 5.51332 47.9957 6.25406C47.9957 7.36518 47.2549 8.10592 46.1438 8.10592C45.0327 8.10592 44.292 7.36518 44.292 6.25406C44.292 5.51332 45.0327 4.77258 46.1438 4.77258V4.77258ZM84.292 43.2911C84.292 42.18 85.0327 41.4393 85.7734 41.4393C86.8846 41.4393 87.6253 42.18 87.6253 43.2911C87.6253 44.0318 86.8846 44.7726 85.7734 44.7726C85.0327 44.7726 84.292 44.0318 84.292 43.2911Z" stroke="#EF7F1A" stroke-miterlimit="22.9256" stroke-linecap="round" stroke-linejoin="round"/>
<path d="M46.1437 45.1429C47.1665 45.1429 47.9956 44.3138 47.9956 43.2911C47.9956 42.2683 47.1665 41.4392 46.1437 41.4392C45.121 41.4392 44.2919 42.2683 44.2919 43.2911C44.2919 44.3138 45.121 45.1429 46.1437 45.1429Z" stroke="#EF7F1A" stroke-miterlimit="22.9256" stroke-linecap="round" stroke-linejoin="round"/>
<path d="M46.1438 41.4392V18.8466" stroke="#EF7F1A" stroke-miterlimit="22.9256" stroke-linecap="round" stroke-linejoin="round"/>
<path d="M44.2919 43.291H32.4401" stroke="#EF7F1A" stroke-miterlimit="22.9256" stroke-linecap="round" stroke-linejoin="round"/>
<path d="M25.0326 25.8836L32.8104 22.5503L29.1067 29.9577" stroke="#EF7F1A" stroke-miterlimit="22.9256" stroke-linecap="round" stroke-linejoin="round"/>
</svg>
