<svg width="123" height="87" viewBox="0 0 123 87" fill="none" xmlns="http://www.w3.org/2000/svg">
<path d="M25.7094 0.965454H116.376C117.265 0.965454 117.857 1.55805 117.857 2.15064V78.0024C117.857 78.5949 117.265 79.1875 116.376 79.1875H25.7094C25.1168 79.1875 24.5242 78.5949 24.5242 78.0024V65.8542H27.1908V76.8172H114.894V3.03952H27.1908V43.0395H24.5242V2.15064C24.5242 1.55805 25.1168 0.965454 25.7094 0.965454V0.965454Z" fill="#EF7F1A"/>
<path fill-rule="evenodd" clip-rule="evenodd" d="M32.8208 9.85437H64.2282V70.2987H32.8208V65.8543H47.3393C49.7097 65.8543 51.7837 63.7802 51.7837 61.1135V47.7802C51.7837 45.1136 49.7097 43.0395 47.3393 43.0395H32.8208V9.85437V9.85437Z" stroke="#EF7F1A" stroke-miterlimit="22.9256" stroke-linecap="round" stroke-linejoin="round"/>
<path fill-rule="evenodd" clip-rule="evenodd" d="M67.1907 8.07654H109.857V72.0764H67.1907V8.07654V8.07654ZM70.1536 11.0395H106.894V69.1135H70.1536V39.7802H69.2647C68.6722 39.7802 68.0796 39.1876 68.0796 38.595C68.0796 38.0024 68.6722 37.7061 69.2647 37.7061H70.1536V11.0395V11.0395Z" stroke="#EF7F1A" stroke-miterlimit="22.9256" stroke-linecap="round" stroke-linejoin="round"/>
<path d="M121.413 78.2986H20.9688V85.4097H121.413V78.2986Z" stroke="#EF7F1A" stroke-width="2" stroke-miterlimit="22.9256" stroke-linecap="round" stroke-linejoin="round"/>
<path d="M74.0055 37.7062H69.2648C68.6102 37.7062 68.0796 38.1705 68.0796 38.7432C68.0796 39.3159 68.6102 39.7802 69.2648 39.7802H74.0055C74.6601 39.7802 75.1907 39.3159 75.1907 38.7432C75.1907 38.1705 74.6601 37.7062 74.0055 37.7062Z" stroke="#EF7F1A" stroke-miterlimit="22.9256" stroke-linecap="round" stroke-linejoin="round"/>
<path fill-rule="evenodd" clip-rule="evenodd" d="M13.2649 43.0394H47.3389C49.7093 43.0394 51.7834 45.1135 51.7834 47.7802V61.1135C51.7834 63.7801 49.7093 65.8542 47.3389 65.8542H13.2649C10.8946 65.8542 9.11678 64.3727 8.52419 62.2987C4.67234 62.0024 1.41309 58.7431 1.41309 54.595C1.41309 50.4468 4.67234 47.1876 8.52419 46.8913C9.11678 44.5209 10.8946 43.0394 13.2649 43.0394V43.0394Z" stroke="#EF7F1A" stroke-width="2" stroke-miterlimit="22.9256"/>
<path d="M8.82038 57.2616C10.4568 57.2616 11.7833 55.935 11.7833 54.2986C11.7833 52.6623 10.4568 51.3357 8.82038 51.3357C7.18398 51.3357 5.85742 52.6623 5.85742 54.2986C5.85742 55.935 7.18398 57.2616 8.82038 57.2616Z" stroke="#EF7F1A" stroke-miterlimit="22.9256"/>
<path d="M38.4501 53.4098H34.302V61.7061H38.4501V53.4098Z" stroke="#EF7F1A" stroke-miterlimit="22.9256"/>
<path d="M34.3016 54.0025C33.1164 53.4099 32.2276 52.521 31.635 51.9284C31.0424 51.3358 30.7461 50.7432 30.7461 50.4469C30.4498 49.8543 30.1535 49.2617 30.1535 48.6691C30.1535 48.3728 30.1535 47.7802 29.8572 47.484C29.8572 47.1877 29.8572 47.1877 29.5609 46.8914C29.5609 46.8914 29.2646 46.8914 28.9683 46.8914C28.672 47.1877 28.3757 47.1877 28.3757 47.484C28.0794 47.7802 28.0794 48.0765 27.7831 48.6691C27.7831 49.2617 27.7831 50.1506 27.7831 50.7432C28.0794 51.3358 28.0794 51.9284 28.3757 52.521C28.3757 52.8173 28.672 53.1136 28.672 53.1136C28.672 53.4099 28.672 53.4099 27.7831 53.4099C26.8942 53.4099 25.1165 53.4099 24.2276 53.4099C23.3387 53.4099 23.3387 53.4099 23.0424 53.7062C23.0424 53.7062 22.7461 54.0025 22.7461 54.2988C22.7461 54.595 22.7461 54.8913 22.7461 54.8913C23.0424 55.1876 23.3387 55.4839 23.3387 55.7802C23.3387 56.0765 23.0424 56.0765 23.0424 56.3728C23.0424 56.6691 23.0424 56.6691 23.3387 56.9654C23.3387 57.2617 23.635 57.558 23.635 57.558C23.9313 57.8543 23.9313 57.8543 23.9313 57.8543C23.9313 57.8543 23.9313 57.8543 23.9313 58.1506C23.635 58.1506 23.635 58.4469 23.635 58.7432C23.635 59.0395 23.9313 59.3358 23.9313 59.3358C24.2276 59.6321 24.5239 59.9284 24.8202 59.9284C24.8202 59.9284 24.8202 59.9284 24.8202 60.2247C24.5239 60.2247 24.5239 60.2247 24.5239 60.521C24.5239 60.8173 24.8202 61.1136 25.1165 61.4099C25.1165 61.4099 25.4128 61.7061 26.5979 61.7061C27.7831 61.7061 29.5609 61.7061 31.0424 61.4099C32.5239 61.4099 33.4127 60.8173 34.3016 60.521" stroke="#EF7F1A" stroke-miterlimit="22.9256"/>
<path d="M9.70949 56.9654C9.70949 56.0765 10.0058 55.1876 9.41319 54.8913C8.5243 54.2987 7.33912 54.2987 5.85764 55.4839C4.37616 56.3728 2.89468 58.4469 2.59839 60.8172C2.59839 62.8913 3.48728 65.558 5.56135 67.3357C7.63542 69.1135 10.8947 70.2987 13.5613 71.1876C15.9317 72.0765 18.0058 72.9654 19.191 74.1505C20.3761 75.3357 20.6724 76.8172 20.9687 78.2987" stroke="#EF7F1A" stroke-miterlimit="22.9256"/>
<path d="M13.2649 65.8542C14.7464 67.632 15.9316 69.4098 17.413 70.8913C18.5982 72.0765 19.7834 72.9653 20.376 74.1505C20.9686 75.3357 20.9686 76.8172 20.9686 78.2987" stroke="#EF7F1A" stroke-miterlimit="22.9256"/>
</svg>
