<svg width="103" height="86" viewBox="0 0 103 86" fill="none" xmlns="http://www.w3.org/2000/svg">
<path fill-rule="evenodd" clip-rule="evenodd" d="M13.1945 17.4783H17.2787C17.2787 19.5204 18.504 20.7456 20.1377 20.7456H32.3902C32.7986 20.7456 33.6155 20.7456 34.0239 20.3372C34.4323 20.7456 35.2492 20.7456 35.6576 20.7456H38.5165C38.9249 20.7456 39.7418 20.7456 40.1502 20.3372C40.5586 20.7456 40.967 20.7456 41.3754 20.7456H54.0364C55.2617 20.7456 56.4869 19.1119 56.4869 17.4783H61.388C63.8385 17.4783 65.8806 19.5204 65.8806 21.9709V69.7559C65.8806 72.2064 63.8385 74.2485 61.388 74.2485H41.3754C41.3754 74.2485 41.3754 74.2485 41.3754 73.8401C41.3754 67.7138 36.4744 62.8128 30.3481 62.8128C24.2218 62.8128 19.3208 67.7138 19.3208 73.8401C19.3208 74.2485 19.3208 74.2485 19.3208 74.2485H13.1945C10.744 74.2485 9.11035 72.2064 9.11035 69.7559V40.3497C9.11035 44.4339 10.744 47.7013 15.6451 47.2928L16.0535 51.377C16.0535 54.6444 18.504 57.5033 22.1798 57.5033H33.2071C36.4744 57.5033 39.3333 54.6444 39.3333 51.377V31.7729C39.3333 28.5056 36.4744 25.6466 33.2071 25.6466H9.11035V21.9709C9.11035 19.5204 10.744 17.4783 13.1945 17.4783V17.4783Z" stroke="#EF7F1A" stroke-width="2" stroke-miterlimit="22.9256" stroke-linecap="round" stroke-linejoin="round"/>
<path fill-rule="evenodd" clip-rule="evenodd" d="M69.5563 28.9141H82.6257C84.6678 28.9141 85.0762 30.9562 86.3014 32.5898L101.413 50.1518V69.7559C101.413 71.798 99.7793 73.4317 97.7372 73.4317H94.8782C94.4698 67.3054 89.5688 62.8128 83.4425 62.8128C77.7246 62.8128 72.8236 67.3054 72.4152 73.4317H69.5563C67.5142 73.4317 65.8805 71.798 65.8805 69.7559V32.5898C65.8805 30.5477 67.5142 28.9141 69.5563 28.9141V28.9141Z" stroke="#EF7F1A" stroke-width="2" stroke-miterlimit="22.9256" stroke-linecap="round" stroke-linejoin="round"/>
<path d="M30.3481 84.8676C36.4383 84.8676 41.3754 79.9305 41.3754 73.8403C41.3754 67.7501 36.4383 62.813 30.3481 62.813C24.2579 62.813 19.3208 67.7501 19.3208 73.8403C19.3208 79.9305 24.2579 84.8676 30.3481 84.8676Z" stroke="#EF7F1A" stroke-width="2" stroke-miterlimit="22.9256" stroke-linecap="round" stroke-linejoin="round"/>
<path d="M30.3481 79.1496C33.2805 79.1496 35.6576 76.7725 35.6576 73.8402C35.6576 70.9079 33.2805 68.5308 30.3481 68.5308C27.4158 68.5308 25.0387 70.9079 25.0387 73.8402C25.0387 76.7725 27.4158 79.1496 30.3481 79.1496Z" stroke="#EF7F1A" stroke-miterlimit="22.9256" stroke-linecap="round" stroke-linejoin="round"/>
<path d="M83.4426 84.8676C89.5328 84.8676 94.4699 79.9305 94.4699 73.8403C94.4699 67.7501 89.5328 62.813 83.4426 62.813C77.3524 62.813 72.4153 67.7501 72.4153 73.8403C72.4153 79.9305 77.3524 84.8676 83.4426 84.8676Z" stroke="#EF7F1A" stroke-width="2" stroke-miterlimit="22.9256" stroke-linecap="round" stroke-linejoin="round"/>
<path d="M83.4426 79.1496C86.3749 79.1496 88.7521 76.7725 88.7521 73.8402C88.7521 70.9079 86.3749 68.5308 83.4426 68.5308C80.5103 68.5308 78.1332 70.9079 78.1332 73.8402C78.1332 76.7725 80.5103 79.1496 83.4426 79.1496Z" stroke="#EF7F1A" stroke-miterlimit="22.9256" stroke-linecap="round" stroke-linejoin="round"/>
<path fill-rule="evenodd" clip-rule="evenodd" d="M70.7815 35.0405H80.1751L91.2024 47.7015V50.5604H70.7815V35.0405Z" stroke="#EF7F1A" stroke-miterlimit="22.9256" stroke-linecap="round" stroke-linejoin="round"/>
<path d="M77.3162 54.2363H73.6404C72.7381 54.2363 72.0067 54.8763 72.0067 55.6658C72.0067 56.4553 72.7381 57.0953 73.6404 57.0953H77.3162C78.2184 57.0953 78.9498 56.4553 78.9498 55.6658C78.9498 54.8763 78.2184 54.2363 77.3162 54.2363Z" stroke="#EF7F1A" stroke-miterlimit="22.9256" stroke-linecap="round" stroke-linejoin="round"/>
<path fill-rule="evenodd" clip-rule="evenodd" d="M4.61771 25.6469H33.207C36.4744 25.6469 39.3333 28.5058 39.3333 31.7731V51.3772C39.3333 54.6446 36.4744 57.5035 33.207 57.5035H22.1797C18.5039 57.5035 16.0534 54.6446 16.0534 51.3772L15.645 47.293C9.92715 48.1099 8.70189 43.6173 9.11031 39.1247C-0.691738 38.7163 0.1251 25.6469 4.61771 25.6469V25.6469Z" stroke="#EF7F1A" stroke-width="2" stroke-miterlimit="22.9256" stroke-linecap="round" stroke-linejoin="round"/>
<path fill-rule="evenodd" clip-rule="evenodd" d="M20.9545 1.55001L31.1649 8.08471C32.3902 8.49313 33.207 9.30997 34.0239 10.1268C33.207 10.5352 32.3902 12.1689 32.3902 13.3942H20.1376C20.1376 13.3942 20.1376 13.3942 19.7292 13.3942H19.3208V13.8026H18.9124H18.5039C18.5039 13.8026 18.5039 13.8026 18.5039 14.211H18.0955V14.6194L17.6871 15.0278C17.6871 15.4363 17.6871 15.4363 17.2787 15.8447C17.2787 16.2531 17.2787 16.2531 17.2787 16.6615C17.2787 16.2531 17.2787 16.2531 17.2787 15.8447V6.45104C17.2787 4.00053 19.3208 0.324757 20.9545 1.55001V1.55001Z" stroke="#EF7F1A" stroke-width="2" stroke-miterlimit="22.9256" stroke-linecap="round" stroke-linejoin="round"/>
<path fill-rule="evenodd" clip-rule="evenodd" d="M20.1376 13.394H32.3902V16.6614V17.4782C32.3902 18.7035 33.207 19.5203 34.0239 20.3372C33.6154 20.7456 32.7986 20.7456 32.3902 20.7456H20.1376C18.5039 20.7456 17.2787 19.1119 17.2787 17.0698C17.2787 15.0277 18.5039 13.394 20.1376 13.394V13.394Z" stroke="#EF7F1A" stroke-width="1.40476" stroke-miterlimit="22.9256" stroke-linecap="round" stroke-linejoin="round"/>
<path fill-rule="evenodd" clip-rule="evenodd" d="M52.8111 1.55009L42.6006 7.67637C41.3754 8.49321 40.5585 8.90162 39.7417 9.71846C40.967 10.5353 41.3754 11.7606 41.3754 13.3942H53.6279H54.0364C55.2616 13.3942 56.0785 14.6195 56.4869 16.2532C56.4869 15.8447 56.4869 15.8447 56.4869 15.8447V6.45111C56.4869 3.59218 54.8532 0.324829 52.8111 1.55009V1.55009Z" stroke="#EF7F1A" stroke-width="2" stroke-miterlimit="22.9256" stroke-linecap="round" stroke-linejoin="round"/>
<path fill-rule="evenodd" clip-rule="evenodd" d="M41.3755 13.394H54.0365C55.2618 13.394 56.487 15.0277 56.487 17.0698C56.487 19.1119 55.2618 20.7456 54.0365 20.7456H41.3755C40.9671 20.7456 40.5587 20.7456 40.1503 20.3372C40.9671 19.5203 41.3755 18.7035 41.3755 17.4782V16.6614V13.394V13.394Z" stroke="#EF7F1A" stroke-width="1.40476" stroke-miterlimit="22.9256" stroke-linecap="round" stroke-linejoin="round"/>
<path d="M38.5165 9.31018H35.2492C33.6702 9.31018 32.3903 11.1387 32.3903 13.3944V16.6617C32.3903 18.9174 33.6702 20.7459 35.2492 20.7459H38.5165C40.0955 20.7459 41.3755 18.9174 41.3755 16.6617V13.3944C41.3755 11.1387 40.0955 9.31018 38.5165 9.31018Z" stroke="#EF7F1A" stroke-width="2" stroke-miterlimit="22.9256" stroke-linecap="round" stroke-linejoin="round"/>
<path d="M12.3777 38.3077H33.6155" stroke="#EF7F1A" stroke-miterlimit="22.9256" stroke-linecap="round" stroke-linejoin="round"/>
<path d="M18.9124 46.4763H34.0238" stroke="#EF7F1A" stroke-miterlimit="22.9256" stroke-linecap="round" stroke-linejoin="round"/>
<path d="M52.1522 57.1883L47.0929 57.1883L47.0929 58.0608L46.3247 58.0608L46.3247 57.1883L45.7046 57.1883C45.3132 57.1883 45.0223 57.1535 44.8321 57.084C44.576 56.9889 44.3693 56.8225 44.212 56.5847C44.0511 56.3432 43.9706 56.0067 43.9706 55.575C43.9706 55.297 44.0035 54.9897 44.0694 54.6531L44.9309 54.8013C44.8943 55.0062 44.876 55.2 44.876 55.383C44.876 55.6829 44.94 55.8951 45.0681 56.0195C45.1961 56.1439 45.4357 56.2061 45.7869 56.2061L46.3247 56.2061L46.3247 55.0702L47.0929 55.0702L47.0929 56.2061L52.1522 56.2061L52.1522 57.1883ZM52.1522 54.3074L46.3247 54.3074L46.3247 53.4185L47.2081 53.4185C46.7947 53.1917 46.5222 52.9832 46.3905 52.7929C46.2588 52.599 46.193 52.3869 46.193 52.1564C46.193 51.8235 46.299 51.4851 46.5112 51.1412L47.4276 51.4814C47.2849 51.7229 47.2136 51.9643 47.2136 52.2058C47.2136 52.4216 47.2795 52.6155 47.4112 52.7874C47.5392 52.9594 47.7184 53.0819 47.9489 53.1551C48.3001 53.2648 48.6842 53.3197 49.1013 53.3197L52.1522 53.3197L52.1522 54.3074ZM50.2755 46.5648L50.4018 45.5441C50.998 45.7051 51.4608 46.0032 51.7901 46.4386C52.1193 46.8739 52.2839 47.43 52.2839 48.1067C52.2839 48.9591 52.0224 49.6359 51.4992 50.137C50.9724 50.6346 50.2353 50.8833 49.2878 50.8833C48.3074 50.8833 47.5465 50.6309 47.0051 50.1261C46.4637 49.6212 46.193 48.9664 46.193 48.1616C46.193 47.3824 46.4582 46.7459 46.9886 46.252C47.5191 45.7581 48.2653 45.5112 49.2275 45.5112C49.286 45.5112 49.3738 45.513 49.4909 45.5167L49.4909 49.8627C50.131 49.8261 50.6213 49.645 50.9615 49.3194C51.3017 48.9938 51.4718 48.5878 51.4718 48.1012C51.4718 47.7391 51.3767 47.43 51.1864 47.1739C50.9962 46.9178 50.6926 46.7148 50.2755 46.5648ZM48.6787 49.8078L48.6787 46.5538C48.1885 46.5977 47.8209 46.7221 47.5758 46.9269C47.1953 47.2416 47.0051 47.6494 47.0051 48.1506C47.0051 48.6042 47.1569 48.9865 47.4605 49.2975C47.7642 49.6048 48.1702 49.7749 48.6787 49.8078ZM50.2755 40.3092L50.4018 39.2886C50.998 39.4495 51.4608 39.7477 51.7901 40.183C52.1193 40.6183 52.2839 41.1744 52.2839 41.8511C52.2839 42.7035 52.0224 43.3803 51.4992 43.8815C50.9724 44.379 50.2353 44.6277 49.2878 44.6277C48.3074 44.6277 47.5465 44.3753 47.0051 43.8705C46.4637 43.3657 46.193 42.7108 46.193 41.906C46.193 41.1268 46.4582 40.4903 46.9886 39.9964C47.5191 39.5026 48.2653 39.2556 49.2275 39.2556C49.286 39.2556 49.3738 39.2575 49.4909 39.2611L49.4909 43.6071C50.131 43.5705 50.6213 43.3894 50.9615 43.0638C51.3017 42.7383 51.4718 42.3322 51.4718 41.8457C51.4718 41.4835 51.3767 41.1744 51.1864 40.9183C50.9962 40.6622 50.6926 40.4592 50.2755 40.3092ZM48.6787 43.5522L48.6787 40.2982C48.1885 40.3421 47.8209 40.4665 47.5758 40.6714C47.1953 40.986 47.0051 41.3939 47.0051 41.895C47.0051 42.3487 47.1569 42.7309 47.4605 43.0419C47.7642 43.3492 48.1702 43.5193 48.6787 43.5522Z" fill="#EF7F1A"/>
</svg>
